<svg xmlns="http://www.w3.org/2000/svg" width="900" height="270" viewBox="0 0 900 270" role="img" aria-labelledby="title desc">
  <title id="title">Context Engineering Project Starter repository card</title>
  <desc id="desc">Premium GitHub profile card for the Context Engineering Project Starter repository.</desc>
  <defs>
    <linearGradient id="bg" x1="0" x2="1" y1="0" y2="1">
      <stop offset="0" stop-color="#111827"/>
      <stop offset="0.55" stop-color="#1e1b4b"/>
      <stop offset="1" stop-color="#6d28d9"/>
    </linearGradient>
    <radialGradient id="glow" cx="80%" cy="18%" r="72%">
      <stop offset="0" stop-color="#a78bfa" stop-opacity="0.42"/>
      <stop offset="0.46" stop-color="#7c3aed" stop-opacity="0.16"/>
      <stop offset="1" stop-color="#020617" stop-opacity="0"/>
    </radialGradient>
    <filter id="shadow" x="-8%" y="-12%" width="116%" height="124%">
      <feDropShadow dx="0" dy="18" stdDeviation="16" flood-color="#020617" flood-opacity="0.38"/>
    </filter>
  </defs>
  <rect x="14" y="14" width="872" height="242" rx="28" fill="url(#bg)" filter="url(#shadow)"/>
  <rect x="15.5" y="15.5" width="869" height="239" rx="26.5" fill="url(#glow)" stroke="#a78bfa" stroke-opacity="0.34"/>
  <path d="M642 72h104M642 108h154M642 144h124M642 180h88" fill="none" stroke="#c4b5fd" stroke-width="8" stroke-linecap="round" opacity="0.2"/>
  <path d="M74 207h188M74 178h118M74 149h236" fill="none" stroke="#a78bfa" stroke-width="5" stroke-linecap="round" opacity="0.22"/>
  <g transform="translate(56 54)">
    <rect width="70" height="70" rx="18" fill="#7c3aed"/>
    <path d="M21 22h28l-9 14 9 14H21V22Z" fill="none" stroke="#f8fafc" stroke-width="6" stroke-linejoin="round"/>
    <path d="M53 22v34" stroke="#f8fafc" stroke-width="6" stroke-linecap="round"/>
  </g>
  <text x="150" y="82" fill="#fff7ed" font-family="Segoe UI, Arial, sans-serif" font-size="38" font-weight="800">Context Starter</text>
  <text x="150" y="120" fill="#ddd6fe" font-family="Segoe UI, Arial, sans-serif" font-size="20" font-weight="600">AI-coding project guardrails</text>
  <text x="150" y="153" fill="#cbd5e1" font-family="Segoe UI, Arial, sans-serif" font-size="18">Starter docs, AGENTS.md, PRDs, architecture notes and verification gates.</text>
  <g transform="translate(150 184)" font-family="Segoe UI, Arial, sans-serif" font-size="14" font-weight="700">
    <rect width="102" height="32" rx="16" fill="#7c3aed"/>
    <text x="18" y="21" fill="#f8fafc">MIT</text>
    <rect x="114" width="136" height="32" rx="16" fill="#111827" stroke="#a78bfa" stroke-opacity="0.5"/>
    <text x="132" y="21" fill="#ddd6fe">AI AGENTS</text>
    <rect x="262" width="122" height="32" rx="16" fill="#f59e0b"/>
    <text x="280" y="21" fill="#111827">TEMPLATES</text>
  </g>
  <text x="514" y="222" fill="#ddd6fe" font-family="Segoe UI, Arial, sans-serif" font-size="18" font-weight="800">ucsahinn/context-engineering-project-starter</text>
</svg>
